<svg xmlns="http://www.w3.org/2000/svg" viewBox="0 0 269.54 66.13" width="269.54" height="66.13">
  <defs>
    <style>.cls-1{fill:#0075c0;}.cls-2{fill:#73c810;}.cls-3{fill:#00d1c3;}.cls-4{fill:#ff8c00;}.cls-5{fill:#ff0005;}</style>
  </defs>
  <g id="Layer_2" data-name="Layer 2">
    <g id="Header">
      <path d="M79.19,14.63H102v6H85.79V27h14.32v6H85.79V44.63h-6.6Z" />
      <path d="M106.45,14.63h6.6v24h15v6H106.45Z" />
      <path d="M132.11,14.63h22.63v5.88H138.67v6.08h14.14v5.87H138.67v6.3H155v5.87H132.11Z" />
      <path d="M160,14.63h7.11L175,27.32l7.88-12.69H190v30h-6.56V25.05L175,37.86h-.17l-8.36-12.68V44.63H160Z" />
      <path d="M196.61,14.63h6.6v30h-6.6Z" />
      <path d="M209.85,14.63h6.08L230,33.11V14.63h6.51v30h-5.61L216.36,25.56V44.63h-6.51Z" />
      <path d="M241,29.72v-.09a15.4,15.4,0,0,1,15.73-15.51c5.4,0,8.66,1.46,11.79,4.11l-4.16,5a11,11,0,0,0-7.84-3c-4.8,0-8.62,4.24-8.62,9.34v.08c0,5.49,3.77,9.52,9.09,9.52a10.51,10.51,0,0,0,6.21-1.8V33.06h-6.64v-5.7h13v13a19.46,19.46,0,0,1-12.82,4.76C247.38,45.15,241,38.59,241,29.72Z" />
      <path class="cls-1" d="M0,14.22c0,.45,0,.95,0,1.42a74.92,74.92,0,0,0,.88,9.88A73.52,73.52,0,0,1,32.44,66.13a57.79,57.79,0,0,0,16.67-13.3l-38-38C7.41,14.76,3.71,14.57,0,14.22Z" />
      <path class="cls-2" d="M28.88,65.26A70.22,70.22,0,0,0,1.78,29.81,57.35,57.35,0,0,0,28.88,65.26Z" />
      <path class="cls-3" d="M11.06,11.68,22.47.27A149.42,149.42,0,0,0,1.41,3,56.62,56.62,0,0,0,.19,11.11C3.82,11.47,7.47,11.66,11.06,11.68Z" />
      <path class="cls-4" d="M28.42,0l-1.36,0L15.51,11.62A116.39,116.39,0,0,0,57.8,2.31,151.69,151.69,0,0,0,28.42,0Z" />
      <path class="cls-5" d="M61.7,4A119.83,119.83,0,0,1,15.4,14.73L31.46,30.79,48.26,14l2.17,2.17L33.63,33,51.08,50.41A57.07,57.07,0,0,0,61.7,4Z" />
    </g>
  </g>
</svg>