<!-- Generator: Adobe Illustrator 25.4.1, SVG Export Plug-In . SVG Version: 6.00 Build 0)  -->
<svg version="1.1" id="Layer_1" xmlns="http://www.w3.org/2000/svg" xmlns:xlink="http://www.w3.org/1999/xlink" x="0px" y="0px" viewBox="0 0 269.5 66.1" style="enable-background:new 0 0 269.5 66.1;" xml:space="preserve" width="269.5" height="66.1">
<style type="text/css">
	.st0{fill:#FFFFFF;}
	.st1{fill:#0075C0;}
	.st2{fill:#73C810;}
	.st3{fill:#00D1C3;}
	.st4{fill:#FF8C00;}
	.st5{fill:#FF0005;}
</style>
<g id="Layer_2_00000133500435562494003200000018439603393724842383_">
	<g id="Header">
		<path class="st0" d="M79.2,14.6H102v6H85.8V27h14.3v6H85.8v11.6h-6.6V14.6z" />
		<path class="st0" d="M106.4,14.6h6.6v24h15v6h-21.6V14.6z" />
		<path class="st0" d="M132.1,14.6h22.6v5.9h-16.1v6.1h14.1v5.9h-14.1v6.3H155v5.9h-22.9V14.6z" />
		<path class="st0" d="M160,14.6h7.1l7.9,12.7l7.9-12.7h7.1v30h-6.6V25.1L175,37.9h-0.2l-8.4-12.7v19.5H160V14.6z" />
		<path class="st0" d="M196.6,14.6h6.6v30h-6.6V14.6z" />
		<path class="st0" d="M209.9,14.6h6.1L230,33.1V14.6h6.5v30h-5.6l-14.5-19.1v19.1h-6.5V14.6z" />
		<path class="st0" d="M241,29.7L241,29.7c-0.1-8.6,6.8-15.5,15.3-15.6c0.1,0,0.3,0,0.4,0c5.4,0,8.7,1.5,11.8,4.1l-4.2,5    c-2.1-2-4.9-3.1-7.8-3c-4.8,0-8.6,4.2-8.6,9.3v0.1c0,5.5,3.8,9.5,9.1,9.5c2.2,0.1,4.4-0.6,6.2-1.8v-4.3h-6.6v-5.7h13v13    c-3.6,3.1-8.1,4.8-12.8,4.8C247.4,45.2,241,38.6,241,29.7z" />
		<path class="st1" d="M0,14.2c0,0.4,0,0.9,0,1.4c0.1,3.3,0.4,6.6,0.9,9.9c15.1,9.3,26.3,23.7,31.6,40.6c6.3-3.4,12-7.9,16.7-13.3    l-38-38C7.4,14.8,3.7,14.6,0,14.2z" />
		<path class="st2" d="M28.9,65.3C23.9,50.8,14.4,38.4,1.8,29.8C5.7,44.8,15.4,57.6,28.9,65.3z" />
		<path class="st3" d="M11.1,11.7L22.5,0.3C15.4,0.7,8.4,1.6,1.4,3c-0.6,2.7-1,5.4-1.2,8.1C3.8,11.5,7.5,11.7,11.1,11.7z" />
		<path class="st4" d="M28.4,0h-1.4L15.5,11.6C30.1,11.2,44.4,8,57.8,2.3C48.1,0.6,38.3-0.2,28.4,0z" />
		<path class="st5" d="M61.7,4c-14.6,6.6-30.3,10.3-46.3,10.7l16.1,16.1L48.3,14l2.2,2.2L33.6,33l17.5,17.4    C61.2,37.2,65.1,20.3,61.7,4z" />
	</g>
</g>
</svg>