<!-- Generator: Adobe Illustrator 25.4.1, SVG Export Plug-In . SVG Version: 6.00 Build 0)  -->
<svg version="1.1" id="Layer_1" xmlns="http://www.w3.org/2000/svg" xmlns:xlink="http://www.w3.org/1999/xlink" x="0px" y="0px" viewBox="0 0 216 158.4" style="enable-background:new 0 0 216 158.4;" xml:space="preserve" width="216" height="158.4">
<style type="text/css">
	.st0{fill:#FFFFFF;}
	.st1{fill:#FAA61F;}
</style>
<g>
	<g>
		<path class="st0" d="M26.82,8.62v5.21H14.84v7.39h9.98v5.23h-9.98v11.36H8.02V8.62H26.82z" />
		<path class="st0" d="M37.64,7.82v30h-6.21v-30H37.64z" />
		<path class="st0" d="M52.43,16.72c1.38,0,2.64,0.21,3.78,0.64c1.14,0.43,2.12,1.05,2.95,1.86c0.82,0.82,1.46,1.81,1.92,3    c0.46,1.18,0.69,2.52,0.69,4.02c0,0.47-0.02,0.85-0.06,1.14c-0.04,0.29-0.11,0.53-0.22,0.7c-0.11,0.17-0.25,0.29-0.43,0.36    c-0.18,0.07-0.41,0.1-0.69,0.1H48.38c0.2,1.74,0.73,3,1.58,3.78c0.85,0.78,1.96,1.17,3.31,1.17c0.72,0,1.34-0.09,1.86-0.26    c0.52-0.17,0.99-0.37,1.39-0.58c0.41-0.21,0.78-0.41,1.12-0.58c0.34-0.17,0.7-0.26,1.07-0.26c0.49,0,0.87,0.18,1.12,0.54l1.8,2.22    c-0.64,0.74-1.33,1.33-2.08,1.79c-0.74,0.46-1.5,0.82-2.28,1.08c-0.78,0.26-1.56,0.44-2.34,0.54c-0.78,0.1-1.53,0.15-2.23,0.15    c-1.46,0-2.82-0.24-4.1-0.71c-1.28-0.47-2.39-1.18-3.35-2.11c-0.96-0.93-1.71-2.1-2.26-3.49c-0.55-1.39-0.83-3.01-0.83-4.85    c0-1.39,0.24-2.71,0.71-3.95c0.47-1.24,1.16-2.33,2.04-3.27c0.89-0.93,1.96-1.68,3.23-2.22C49.42,16.99,50.84,16.72,52.43,16.72z     M52.55,21.01c-1.19,0-2.12,0.34-2.79,1.01c-0.67,0.67-1.11,1.65-1.32,2.92h7.76c0-0.5-0.06-0.98-0.19-1.44    c-0.13-0.47-0.33-0.88-0.62-1.25c-0.29-0.37-0.67-0.67-1.13-0.89C53.79,21.12,53.22,21.01,52.55,21.01z" />
		<path class="st0" d="M66.22,37.82V17.04h3.85c0.39,0,0.71,0.09,0.97,0.26c0.26,0.17,0.44,0.43,0.55,0.78l0.34,1.12    c0.35-0.36,0.71-0.69,1.08-0.99c0.37-0.3,0.78-0.56,1.21-0.78c0.43-0.22,0.9-0.39,1.4-0.52c0.5-0.13,1.05-0.19,1.65-0.19    c1.26,0,2.29,0.32,3.12,0.97c0.82,0.65,1.45,1.51,1.87,2.59c0.35-0.64,0.77-1.19,1.27-1.64c0.5-0.45,1.04-0.82,1.62-1.1    c0.58-0.28,1.2-0.49,1.84-0.62c0.65-0.13,1.29-0.2,1.93-0.2c1.19,0,2.24,0.18,3.17,0.53c0.92,0.35,1.69,0.87,2.32,1.54    c0.62,0.67,1.09,1.5,1.41,2.48c0.32,0.98,0.48,2.09,0.48,3.34v13.21h-6.21V24.62c0-2.15-0.92-3.23-2.77-3.23    c-0.84,0-1.54,0.28-2.09,0.83c-0.55,0.55-0.83,1.35-0.83,2.4v13.21h-6.21V24.62c0-1.19-0.23-2.03-0.7-2.51    c-0.47-0.48-1.16-0.72-2.06-0.72c-0.56,0-1.09,0.13-1.59,0.38c-0.5,0.25-0.97,0.59-1.41,1.02v15.03H66.22z" />
		<path class="st0" d="M108.75,11.35c0,0.5-0.1,0.96-0.3,1.39c-0.2,0.43-0.47,0.81-0.82,1.14c-0.35,0.33-0.75,0.59-1.21,0.78    c-0.46,0.19-0.95,0.29-1.47,0.29c-0.51,0-0.98-0.1-1.42-0.29c-0.44-0.19-0.83-0.45-1.17-0.78c-0.34-0.33-0.61-0.71-0.8-1.14    c-0.19-0.43-0.29-0.9-0.29-1.39c0-0.51,0.1-0.98,0.29-1.42c0.19-0.44,0.46-0.83,0.8-1.16c0.34-0.33,0.73-0.59,1.17-0.78    c0.44-0.19,0.92-0.28,1.42-0.28c0.52,0,1.01,0.09,1.47,0.28c0.46,0.19,0.87,0.45,1.21,0.78c0.35,0.33,0.62,0.72,0.82,1.16    C108.65,10.37,108.75,10.84,108.75,11.35z M108.03,17.04v20.78h-6.21V17.04H108.03z" />
		<path class="st1" d="M113.92,37.82V17.04h3.85c0.39,0,0.71,0.09,0.97,0.26c0.26,0.17,0.44,0.43,0.55,0.78l0.36,1.2    c0.4-0.37,0.81-0.72,1.24-1.04c0.43-0.32,0.89-0.59,1.37-0.81c0.49-0.22,1.02-0.39,1.58-0.52c0.57-0.13,1.19-0.19,1.85-0.19    c1.14,0,2.14,0.2,3.02,0.59c0.88,0.39,1.61,0.94,2.21,1.64c0.6,0.7,1.05,1.54,1.36,2.5c0.31,0.97,0.46,2.02,0.46,3.16v13.21h-6.21    V24.62c0-1.02-0.23-1.81-0.7-2.38c-0.47-0.57-1.16-0.85-2.06-0.85c-0.68,0-1.32,0.15-1.92,0.44c-0.6,0.29-1.18,0.69-1.72,1.18    v14.81H113.92z" />
		<path class="st0" d="M145.38,16.68c0.88,0,1.71,0.09,2.5,0.26c0.78,0.17,1.51,0.42,2.17,0.74h6.27v2.26c0,0.35-0.1,0.62-0.29,0.82    c-0.19,0.2-0.52,0.35-0.99,0.46l-1.52,0.34c0.19,0.6,0.28,1.22,0.28,1.86c0,1.04-0.22,1.98-0.65,2.81    c-0.43,0.83-1.03,1.53-1.78,2.11c-0.76,0.58-1.65,1.03-2.68,1.34c-1.03,0.32-2.13,0.47-3.31,0.47c-0.65,0-1.27-0.04-1.84-0.12    c-0.45,0.27-0.68,0.58-0.68,0.93c0,0.35,0.18,0.6,0.55,0.76c0.37,0.16,0.85,0.26,1.45,0.32c0.6,0.06,1.29,0.09,2.06,0.09    c0.77,0,1.56,0.04,2.37,0.11c0.8,0.07,1.59,0.2,2.36,0.37c0.77,0.17,1.46,0.46,2.06,0.84c0.6,0.39,1.09,0.91,1.45,1.56    c0.37,0.65,0.55,1.48,0.55,2.48c0,0.94-0.23,1.86-0.68,2.75c-0.45,0.9-1.12,1.7-2,2.39c-0.88,0.7-1.96,1.26-3.25,1.68    c-1.28,0.42-2.75,0.63-4.41,0.63c-1.63,0-3.04-0.15-4.22-0.46c-1.18-0.31-2.17-0.71-2.95-1.21c-0.78-0.5-1.36-1.08-1.73-1.74    c-0.37-0.66-0.56-1.34-0.56-2.05c0-0.92,0.28-1.7,0.84-2.34c0.56-0.63,1.33-1.13,2.3-1.49c-0.47-0.31-0.84-0.7-1.12-1.18    c-0.28-0.48-0.42-1.09-0.42-1.82c0-0.31,0.05-0.63,0.16-0.97c0.11-0.34,0.27-0.67,0.5-0.99c0.23-0.32,0.51-0.63,0.86-0.92    c0.35-0.29,0.76-0.55,1.24-0.78c-1.08-0.57-1.93-1.34-2.56-2.28c-0.62-0.95-0.93-2.05-0.93-3.31c0-1.04,0.22-1.98,0.66-2.82    c0.44-0.83,1.04-1.54,1.81-2.12c0.77-0.58,1.67-1.03,2.72-1.34C143.04,16.83,144.17,16.68,145.38,16.68z M149.99,38.54    c0-0.34-0.1-0.61-0.31-0.82c-0.21-0.2-0.49-0.37-0.84-0.49c-0.35-0.12-0.77-0.21-1.24-0.27c-0.47-0.05-0.99-0.08-1.53-0.08    c-0.55,0-1.12,0-1.7,0c-0.59,0-1.17-0.06-1.74-0.17c-0.39,0.27-0.7,0.57-0.95,0.89c-0.25,0.33-0.37,0.7-0.37,1.12    c0,0.29,0.06,0.56,0.19,0.8c0.13,0.24,0.35,0.45,0.67,0.62c0.32,0.17,0.75,0.31,1.29,0.41c0.54,0.1,1.23,0.15,2.05,0.15    c0.9,0,1.63-0.05,2.21-0.16c0.57-0.11,1.03-0.26,1.37-0.45c0.34-0.19,0.58-0.42,0.71-0.69C149.93,39.14,149.99,38.85,149.99,38.54    z M145.38,26.34c1.03,0,1.77-0.26,2.23-0.77c0.46-0.51,0.69-1.18,0.69-1.99c0-0.84-0.23-1.5-0.69-1.98    c-0.46-0.48-1.21-0.72-2.23-0.72c-1.03,0-1.77,0.24-2.23,0.72c-0.46,0.48-0.69,1.14-0.69,1.98c0,0.4,0.06,0.77,0.17,1.1    c0.11,0.33,0.29,0.62,0.53,0.87c0.24,0.25,0.54,0.44,0.91,0.58C144.44,26.27,144.88,26.34,145.38,26.34z" />
	</g>
	<path class="st0" d="M56.29,139.7c2.61,0,5.01-0.12,7.19-0.37c2.18-0.25,4.24-0.62,6.18-1.11c1.94-0.49,3.76-1.09,5.47-1.79   c1.71-0.7,3.42-1.5,5.13-2.4v-21.34h-15c-0.86,0-1.54-0.25-2.06-0.75c-0.52-0.49-0.78-1.1-0.78-1.82v-7.43h29.72v37.15   c-2.43,1.76-4.96,3.29-7.6,4.59c-2.63,1.31-5.45,2.4-8.44,3.28c-3,0.88-6.2,1.53-9.63,1.96c-3.42,0.43-7.14,0.64-11.15,0.64   c-7.02,0-13.46-1.2-19.32-3.61c-5.86-2.41-10.9-5.79-15.13-10.13c-4.23-4.34-7.53-9.56-9.9-15.64c-2.36-6.08-3.55-12.77-3.55-20.06   c0-7.39,1.16-14.12,3.48-20.2c2.32-6.08,5.63-11.29,9.93-15.64c4.3-4.34,9.5-7.71,15.6-10.1c6.1-2.39,12.94-3.58,20.5-3.58   c3.83,0,7.39,0.28,10.67,0.84c3.29,0.56,6.34,1.38,9.15,2.43c2.81,1.06,5.41,2.34,7.8,3.85c2.39,1.51,4.61,3.21,6.69,5.1   l-3.72,5.94c-0.77,1.22-1.76,1.82-2.97,1.82c-0.72,0-1.51-0.25-2.36-0.74c-1.13-0.63-2.39-1.4-3.78-2.3c-1.4-0.9-3.1-1.77-5.1-2.6   c-2-0.83-4.37-1.54-7.09-2.13c-2.72-0.58-5.96-0.88-9.69-0.88c-5.45,0-10.38,0.89-14.79,2.67c-4.41,1.78-8.17,4.32-11.28,7.63   c-3.11,3.31-5.49,7.32-7.16,12.02c-1.67,4.71-2.5,9.99-2.5,15.84c0,6.12,0.87,11.58,2.6,16.38c1.73,4.79,4.18,8.86,7.33,12.19   c3.15,3.33,6.89,5.88,11.21,7.63C46.3,138.82,51.07,139.7,56.29,139.7z" />
	<path class="st0" d="M203.34,67.55c-0.41,0.68-0.83,1.18-1.28,1.52c-0.45,0.34-1.04,0.51-1.76,0.51c-0.77,0-1.65-0.38-2.67-1.15   c-1.01-0.76-2.3-1.61-3.85-2.53c-1.55-0.92-3.42-1.77-5.61-2.53c-2.18-0.76-4.83-1.15-7.94-1.15c-2.93,0-5.52,0.4-7.77,1.18   c-2.25,0.79-4.13,1.86-5.64,3.21c-1.51,1.35-2.65,2.94-3.41,4.76c-0.77,1.82-1.15,3.79-1.15,5.91c0,2.7,0.66,4.94,1.99,6.72   c1.33,1.78,3.08,3.3,5.27,4.56c2.18,1.26,4.66,2.35,7.43,3.28c2.77,0.92,5.6,1.88,8.51,2.87c2.9,0.99,5.74,2.11,8.51,3.34   c2.77,1.24,5.25,2.8,7.43,4.7c2.18,1.89,3.94,4.21,5.27,6.96c1.33,2.75,1.99,6.12,1.99,10.13c0,4.23-0.72,8.21-2.16,11.92   c-1.44,3.71-3.55,6.95-6.32,9.69c-2.77,2.75-6.17,4.91-10.2,6.48c-4.03,1.58-8.61,2.36-13.74,2.36c-6.26,0-11.97-1.14-17.12-3.41   c-5.16-2.27-9.56-5.35-13.21-9.22l3.78-6.22c0.36-0.49,0.8-0.91,1.32-1.25c0.52-0.34,1.09-0.51,1.72-0.51   c0.94,0,2.03,0.51,3.24,1.52c1.22,1.01,2.74,2.13,4.56,3.34c1.82,1.22,4.03,2.33,6.62,3.34c2.59,1.01,5.75,1.52,9.49,1.52   c3.11,0,5.88-0.43,8.31-1.28c2.43-0.86,4.49-2.06,6.18-3.61c1.69-1.55,2.98-3.41,3.88-5.57c0.9-2.16,1.35-4.57,1.35-7.23   c0-2.93-0.66-5.33-1.99-7.19c-1.33-1.87-3.07-3.43-5.23-4.69c-2.16-1.26-4.63-2.33-7.4-3.21c-2.77-0.88-5.61-1.78-8.51-2.7   c-2.9-0.92-5.74-1.99-8.51-3.21c-2.77-1.22-5.23-2.79-7.4-4.73c-2.16-1.94-3.91-4.36-5.23-7.26c-1.33-2.91-1.99-6.5-1.99-10.77   c0-3.42,0.66-6.73,1.99-9.93c1.33-3.2,3.25-6.03,5.78-8.51c2.52-2.48,5.64-4.46,9.36-5.94c3.71-1.49,7.98-2.23,12.8-2.23   c5.4,0,10.33,0.86,14.79,2.57c4.46,1.71,8.35,4.19,11.69,7.43L203.34,67.55z" />
	<path class="st0" d="M193.03,20.34c0-6.83-5.54-12.37-12.37-12.37c-6.83,0-12.37,5.54-12.37,12.37c0,2.7,0.88,5.2,2.35,7.23h-0.01   l0.17,0.21c0.2,0.27,0.41,0.52,0.63,0.77l9.23,11.27l9.24-11.27c0.22-0.25,0.43-0.51,0.63-0.77l0.05-0.05h0   C192.11,25.66,193.03,23.11,193.03,20.34z M180.66,25.45c-2.82,0-5.1-2.28-5.1-5.1c0-2.82,2.29-5.1,5.1-5.1   c2.82,0,5.1,2.29,5.1,5.1C185.76,23.16,183.48,25.45,180.66,25.45z" />
	<path class="st1" d="M108.75,92.54h2.72v0.02h1.91c1.37,0,2.49,1.03,2.64,2.36v41.26v3.64v7.81c0,1.48,1.2,2.67,2.67,2.67h3.65h1   h2.67v-2.67v-7.81v-3.64V88.66v-40.6L108.75,92.54z" />
</g>
</svg>