<!-- Generator: Adobe Illustrator 25.4.1, SVG Export Plug-In . SVG Version: 6.00 Build 0)  -->
<svg version="1.1" id="Layer_1" xmlns="http://www.w3.org/2000/svg" xmlns:xlink="http://www.w3.org/1999/xlink" x="0px" y="0px" viewBox="0 0 216 158.4" style="enable-background:new 0 0 216 158.4;" xml:space="preserve" width="216" height="158.4">
<style type="text/css">
	.st0{fill:#010101;}
	.st1{fill:#FAA61F;}
</style>
<g>
	<g>
		<path class="st0" d="M26.45,8.3v5.23H14.41v7.43h10.03v5.25H14.41v11.42H7.56V8.3H26.45z" />
		<path class="st0" d="M37.32,7.5v30.14h-6.24V7.5H37.32z" />
		<path class="st0" d="M52.18,16.43c1.38,0,2.65,0.21,3.79,0.64c1.15,0.43,2.13,1.06,2.96,1.87c0.83,0.82,1.47,1.82,1.93,3.01    c0.46,1.19,0.69,2.53,0.69,4.04c0,0.47-0.02,0.85-0.06,1.15c-0.04,0.3-0.11,0.53-0.22,0.71c-0.11,0.17-0.25,0.29-0.43,0.36    c-0.18,0.07-0.41,0.1-0.69,0.1H48.11c0.2,1.75,0.73,3.01,1.59,3.79c0.86,0.79,1.97,1.18,3.32,1.18c0.73,0,1.35-0.09,1.87-0.26    c0.52-0.17,0.99-0.37,1.4-0.58c0.41-0.21,0.79-0.41,1.13-0.58c0.34-0.17,0.7-0.26,1.08-0.26c0.5,0,0.87,0.18,1.13,0.54l1.81,2.23    c-0.64,0.74-1.34,1.34-2.08,1.8c-0.74,0.46-1.51,0.83-2.29,1.09c-0.79,0.26-1.57,0.44-2.36,0.54c-0.79,0.1-1.53,0.15-2.25,0.15    c-1.46,0-2.84-0.24-4.12-0.71c-1.28-0.48-2.4-1.18-3.36-2.12c-0.96-0.94-1.72-2.11-2.27-3.5c-0.56-1.4-0.84-3.02-0.84-4.87    c0-1.4,0.24-2.72,0.71-3.97c0.48-1.25,1.16-2.34,2.05-3.28c0.89-0.94,1.97-1.68,3.24-2.23C49.15,16.71,50.58,16.43,52.18,16.43z     M52.3,20.74c-1.19,0-2.13,0.34-2.8,1.02c-0.67,0.68-1.11,1.66-1.33,2.93h7.79c0-0.5-0.06-0.98-0.19-1.45    c-0.13-0.47-0.34-0.89-0.62-1.26c-0.29-0.37-0.67-0.67-1.14-0.9C53.54,20.86,52.97,20.74,52.3,20.74z" />
		<path class="st0" d="M66.03,37.63V16.76h3.87c0.39,0,0.71,0.09,0.98,0.26c0.26,0.17,0.45,0.44,0.55,0.79l0.34,1.13    c0.35-0.36,0.71-0.69,1.09-1c0.38-0.3,0.78-0.56,1.22-0.79c0.44-0.22,0.91-0.4,1.41-0.52c0.5-0.13,1.06-0.19,1.66-0.19    c1.26,0,2.31,0.33,3.13,0.98s1.45,1.52,1.88,2.61c0.35-0.64,0.78-1.19,1.28-1.65c0.5-0.46,1.05-0.83,1.63-1.11    c0.58-0.28,1.2-0.49,1.85-0.62c0.65-0.13,1.3-0.2,1.94-0.2c1.19,0,2.25,0.18,3.18,0.53c0.93,0.36,1.7,0.87,2.33,1.55    c0.62,0.68,1.1,1.51,1.42,2.5c0.32,0.99,0.48,2.1,0.48,3.35v13.27h-6.24V24.37c0-2.16-0.93-3.24-2.78-3.24    c-0.85,0-1.55,0.28-2.1,0.83c-0.56,0.56-0.84,1.36-0.84,2.41v13.27h-6.24V24.37c0-1.19-0.23-2.03-0.7-2.52    c-0.47-0.48-1.16-0.72-2.07-0.72c-0.56,0-1.1,0.13-1.6,0.38c-0.5,0.26-0.98,0.6-1.42,1.03v15.1H66.03z" />
		<path class="st0" d="M108.75,11.04c0,0.5-0.1,0.96-0.3,1.4c-0.2,0.44-0.48,0.82-0.83,1.15c-0.35,0.33-0.75,0.59-1.22,0.79    c-0.46,0.2-0.96,0.29-1.48,0.29c-0.51,0-0.99-0.1-1.43-0.29c-0.44-0.19-0.84-0.46-1.18-0.79c-0.34-0.33-0.61-0.71-0.81-1.15    c-0.19-0.44-0.29-0.9-0.29-1.4c0-0.51,0.1-0.99,0.29-1.43c0.19-0.44,0.46-0.83,0.81-1.17c0.34-0.33,0.73-0.6,1.18-0.79    c0.44-0.19,0.92-0.28,1.43-0.28c0.52,0,1.02,0.09,1.48,0.28c0.46,0.19,0.87,0.45,1.22,0.79c0.35,0.34,0.62,0.73,0.83,1.17    C108.65,10.05,108.75,10.53,108.75,11.04z M108.03,16.76v20.88h-6.24V16.76H108.03z" />
		<path class="st1" d="M113.95,37.63V16.76h3.86c0.39,0,0.72,0.09,0.98,0.26c0.26,0.17,0.45,0.44,0.55,0.79l0.36,1.21    c0.4-0.38,0.82-0.72,1.25-1.05c0.43-0.32,0.89-0.59,1.38-0.81c0.49-0.22,1.02-0.4,1.59-0.52c0.57-0.13,1.19-0.19,1.86-0.19    c1.14,0,2.15,0.2,3.03,0.59c0.88,0.4,1.62,0.95,2.22,1.65c0.6,0.71,1.06,1.54,1.37,2.52c0.31,0.97,0.46,2.03,0.46,3.17v13.27    h-6.24V24.37c0-1.02-0.23-1.81-0.7-2.39c-0.47-0.57-1.16-0.85-2.07-0.85c-0.68,0-1.33,0.15-1.93,0.44    c-0.6,0.29-1.18,0.69-1.73,1.19v14.88H113.95z" />
		<path class="st0" d="M145.55,16.39c0.89,0,1.72,0.09,2.51,0.26c0.79,0.17,1.51,0.42,2.19,0.75h6.3v2.28c0,0.35-0.1,0.62-0.29,0.83    c-0.19,0.2-0.53,0.36-1,0.46l-1.53,0.34c0.19,0.6,0.28,1.23,0.28,1.87c0,1.05-0.22,1.99-0.65,2.82c-0.44,0.83-1.03,1.54-1.79,2.12    c-0.76,0.58-1.65,1.03-2.69,1.35c-1.03,0.32-2.14,0.47-3.32,0.47c-0.66,0-1.28-0.04-1.85-0.12c-0.46,0.27-0.68,0.58-0.68,0.93    c0,0.35,0.18,0.61,0.55,0.76c0.37,0.16,0.86,0.26,1.46,0.33c0.6,0.06,1.3,0.09,2.07,0.09c0.78,0,1.57,0.04,2.38,0.11    c0.81,0.07,1.6,0.2,2.38,0.37c0.78,0.17,1.47,0.46,2.07,0.85c0.6,0.39,1.09,0.91,1.46,1.57c0.37,0.65,0.55,1.48,0.55,2.49    c0,0.94-0.23,1.86-0.69,2.77c-0.46,0.9-1.13,1.7-2.01,2.4c-0.89,0.7-1.97,1.26-3.26,1.69c-1.29,0.42-2.77,0.64-4.43,0.64    c-1.64,0-3.05-0.15-4.24-0.46c-1.19-0.31-2.17-0.72-2.96-1.22c-0.79-0.5-1.37-1.09-1.74-1.75c-0.38-0.66-0.56-1.34-0.56-2.05    c0-0.93,0.28-1.71,0.85-2.35c0.56-0.64,1.33-1.14,2.31-1.5c-0.47-0.31-0.85-0.7-1.13-1.19c-0.28-0.48-0.42-1.09-0.42-1.83    c0-0.31,0.05-0.63,0.16-0.97c0.11-0.34,0.27-0.67,0.5-1c0.23-0.32,0.52-0.63,0.87-0.93c0.35-0.29,0.77-0.56,1.25-0.78    c-1.09-0.58-1.94-1.34-2.57-2.29c-0.62-0.95-0.94-2.06-0.94-3.32c0-1.05,0.22-1.99,0.66-2.83c0.44-0.84,1.05-1.55,1.82-2.13    c0.77-0.58,1.68-1.03,2.73-1.35C143.2,16.55,144.33,16.39,145.55,16.39z M150.19,38.35c0-0.34-0.1-0.62-0.31-0.82    c-0.21-0.21-0.49-0.37-0.85-0.49c-0.36-0.12-0.77-0.21-1.25-0.27c-0.48-0.05-0.99-0.08-1.54-0.08c-0.55,0-1.12,0-1.71,0    c-0.59,0-1.17-0.06-1.75-0.17c-0.39,0.27-0.71,0.57-0.96,0.9c-0.25,0.33-0.37,0.7-0.37,1.12c0,0.3,0.06,0.57,0.19,0.81    c0.13,0.24,0.35,0.45,0.67,0.63c0.32,0.17,0.75,0.31,1.3,0.41c0.54,0.1,1.23,0.15,2.06,0.15c0.9,0,1.64-0.06,2.22-0.17    c0.58-0.11,1.04-0.26,1.38-0.45c0.34-0.19,0.58-0.42,0.72-0.69C150.12,38.96,150.19,38.67,150.19,38.35z M145.55,26.1    c1.03,0,1.78-0.26,2.24-0.78c0.46-0.52,0.69-1.18,0.69-2c0-0.84-0.23-1.51-0.69-1.99c-0.46-0.48-1.21-0.73-2.24-0.73    c-1.03,0-1.78,0.24-2.25,0.73c-0.46,0.48-0.69,1.15-0.69,1.99c0,0.4,0.06,0.77,0.17,1.11c0.11,0.34,0.29,0.63,0.53,0.88    c0.24,0.25,0.55,0.44,0.92,0.58C144.61,26.03,145.04,26.1,145.55,26.1z" />
	</g>
	<path class="st0" d="M56.06,139.97c2.62,0,5.03-0.12,7.23-0.37c2.19-0.25,4.26-0.62,6.21-1.12c1.94-0.5,3.78-1.1,5.5-1.8   c1.72-0.7,3.44-1.51,5.16-2.41v-21.44H65.08c-0.86,0-1.55-0.25-2.07-0.75c-0.52-0.5-0.78-1.11-0.78-1.83v-7.46h29.86v37.32   c-2.44,1.76-4.99,3.3-7.63,4.61c-2.65,1.31-5.47,2.41-8.48,3.29c-3.01,0.88-6.23,1.54-9.67,1.97c-3.44,0.43-7.17,0.64-11.2,0.64   c-7.06,0-13.53-1.21-19.41-3.63c-5.88-2.42-10.95-5.81-15.2-10.18c-4.25-4.36-7.57-9.6-9.94-15.71C8.19,115,7,108.29,7,100.96   c0-7.42,1.16-14.18,3.5-20.29c2.33-6.11,5.65-11.34,9.97-15.71c4.32-4.36,9.54-7.75,15.67-10.15c6.13-2.4,12.99-3.6,20.59-3.6   c3.84,0,7.42,0.28,10.72,0.85c3.3,0.57,6.37,1.38,9.19,2.44c2.83,1.06,5.44,2.35,7.84,3.87c2.4,1.52,4.64,3.22,6.72,5.12   l-3.73,5.97c-0.77,1.22-1.76,1.83-2.98,1.83c-0.72,0-1.52-0.25-2.38-0.75c-1.13-0.63-2.4-1.4-3.8-2.31   c-1.4-0.9-3.11-1.77-5.12-2.61c-2.01-0.84-4.39-1.55-7.12-2.14c-2.74-0.59-5.98-0.88-9.74-0.88c-5.47,0-10.43,0.89-14.86,2.68   c-4.43,1.79-8.21,4.34-11.33,7.67c-3.12,3.33-5.52,7.35-7.19,12.08c-1.67,4.73-2.51,10.03-2.51,15.91c0,6.15,0.87,11.64,2.61,16.46   c1.74,4.82,4.2,8.9,7.36,12.25c3.17,3.35,6.92,5.9,11.26,7.67C46.01,139.09,50.81,139.97,56.06,139.97z" />
	<path class="st0" d="M203.78,67.5c-0.41,0.68-0.84,1.19-1.29,1.53c-0.45,0.34-1.04,0.51-1.76,0.51c-0.77,0-1.66-0.38-2.68-1.15   c-1.02-0.77-2.31-1.62-3.87-2.54c-1.56-0.93-3.44-1.77-5.63-2.54c-2.2-0.77-4.85-1.15-7.97-1.15c-2.94,0-5.54,0.4-7.8,1.19   c-2.26,0.79-4.15,1.87-5.67,3.22c-1.52,1.36-2.66,2.95-3.43,4.78c-0.77,1.83-1.15,3.81-1.15,5.94c0,2.71,0.67,4.97,2,6.75   c1.33,1.79,3.1,3.31,5.29,4.58c2.19,1.27,4.68,2.37,7.46,3.29c2.78,0.93,5.63,1.89,8.55,2.88c2.92,1,5.77,2.12,8.55,3.36   c2.78,1.25,5.27,2.82,7.46,4.72c2.19,1.9,3.96,4.23,5.29,6.99c1.33,2.76,2,6.15,2,10.18c0,4.25-0.72,8.24-2.17,11.98   c-1.45,3.73-3.56,6.98-6.34,9.74c-2.78,2.76-6.2,4.93-10.25,6.51c-4.05,1.58-8.65,2.37-13.81,2.37c-6.29,0-12.02-1.14-17.2-3.43   c-5.18-2.28-9.6-5.37-13.27-9.26l3.8-6.24c0.36-0.5,0.8-0.92,1.32-1.26c0.52-0.34,1.1-0.51,1.73-0.51c0.95,0,2.04,0.51,3.26,1.53   c1.22,1.02,2.75,2.14,4.58,3.36c1.83,1.22,4.05,2.34,6.65,3.36c2.6,1.02,5.78,1.53,9.53,1.53c3.12,0,5.9-0.43,8.35-1.29   c2.44-0.86,4.51-2.07,6.21-3.63s3-3.43,3.9-5.6c0.9-2.17,1.36-4.59,1.36-7.26c0-2.94-0.67-5.35-2-7.23   c-1.34-1.88-3.09-3.45-5.26-4.72c-2.17-1.27-4.65-2.34-7.43-3.22c-2.78-0.88-5.63-1.79-8.55-2.71c-2.92-0.93-5.77-2-8.55-3.22   c-2.78-1.22-5.26-2.8-7.43-4.75c-2.17-1.94-3.92-4.38-5.26-7.29c-1.33-2.92-2-6.52-2-10.82c0-3.44,0.67-6.76,2-9.98   c1.33-3.21,3.27-6.06,5.8-8.55c2.53-2.49,5.67-4.48,9.4-5.97c3.73-1.49,8.02-2.24,12.86-2.24c5.43,0,10.38,0.86,14.86,2.58   c4.48,1.72,8.39,4.21,11.74,7.46L203.78,67.5z" />
	<path class="st0" d="M193.42,20.07c0-6.86-5.57-12.43-12.43-12.43c-6.86,0-12.43,5.57-12.43,12.43c0,2.72,0.88,5.22,2.36,7.27   h-0.01l0.17,0.21c0.2,0.27,0.41,0.53,0.64,0.78l9.28,11.33l9.28-11.33c0.22-0.25,0.43-0.51,0.64-0.78l0.04-0.06h0   C192.49,25.42,193.42,22.86,193.42,20.07z M180.99,25.2c-2.83,0-5.13-2.29-5.13-5.13c0-2.83,2.3-5.13,5.13-5.13   c2.83,0,5.13,2.3,5.13,5.13C186.12,22.91,183.82,25.2,180.99,25.2z" />
	<path class="st1" d="M108.75,92.6h2.73v0.02h1.92c1.38,0,2.5,1.04,2.65,2.37v41.44v3.66v7.85c0,1.48,1.2,2.68,2.68,2.68h3.67h1.01   h2.69v-2.68v-7.85v-3.66V88.71V47.92L108.75,92.6z" />
</g>
</svg>